/* XPM */
static char *result[] = {
/* columns rows colors chars-per-pixel */
"16 32 8 1 ",
"  c #35271F",
". c #453224",
"X c #563F2A",
"o c #664729",
"O c #7A5937",
"+ c #846141",
"@ c #8D6845",
"# c None",
/* pixels */
"################",
"################",
"################",
"################",
"################",
"################",
"################",
"################",
"################",
"################",
"################",
"                ",
" OOOXOOXOOOXOOO ",
" OOOXOOXOOOXOOO ",
" OOOXOOXOOOXOOO ",
" OOOXOOXOOOXOOO ",
" OOOXOOXOOOXOOO ",
" OOOXOOXOOOXOOO ",
" OOOXOOXOOOXOOO ",
" OOOXOOXOOOXOOO ",
" @@@@@@@@@@@@@@ ",
" oooooooooooooo ",
" ooXXXXXXXXXXoo ",
" ooXoo.oo.ooXoo ",
" ooXoo.oo.ooXoo ",
" ooXoo.oo.ooXoo ",
" ooXoo.oo.ooXoo ",
" ooXoo.oo.ooXoo ",
" ooXooooooooXoo ",
" oo++++++++++oo ",
" oooooooooooooo ",
"                "
};
