/* XPM */
static char *result[] = {
/* columns rows colors chars-per-pixel */
"32 32 179 2 ",
"   c #17111D",
".  c #16121D",
"X  c #17121D",
"o  c #15101E",
"O  c #15111E",
"+  c #14101F",
"@  c #15111F",
"#  c #16111E",
"$  c #17111E",
"%  c #16111F",
"&  c #17111F",
"*  c #16121E",
"=  c #17121E",
"-  c #16131E",
";  c #17131E",
":  c #16121F",
">  c #17121F",
",  c #17131F",
"<  c #18121D",
"1  c #18131E",
"2  c #18121F",
"3  c #19121F",
"4  c #18131F",
"5  c #19131F",
"6  c #18141E",
"7  c #18141F",
"8  c #141121",
"9  c #171120",
"0  c #161121",
"q  c #141220",
"w  c #141221",
"e  c #151221",
"r  c #151321",
"t  c #161220",
"y  c #171220",
"u  c #171320",
"i  c #161221",
"p  c #161321",
"a  c #171321",
"s  c #151322",
"d  c #161222",
"f  c #161322",
"g  c #171420",
"h  c #181220",
"j  c #181320",
"k  c #181221",
"l  c #181321",
"z  c #191323",
"x  c #191420",
"c  c #181421",
"v  c #1A1420",
"b  c #1B1420",
"n  c #1A1421",
"m  c #181422",
"M  c #8D7268",
"N  c #8E7468",
"B  c #8F7468",
"V  c #8E746A",
"C  c #907064",
"Z  c #937365",
"A  c #917266",
"S  c #947366",
"D  c #947367",
"F  c #9C7866",
"G  c #917368",
"H  c #90746A",
"J  c #967669",
"K  c #96766A",
"L  c #97776B",
"P  c #91736E",
"I  c #98766B",
"U  c #9A776C",
"Y  c #99786B",
"T  c #9C7A6B",
"R  c #8F7874",
"E  c #937772",
"W  c #987874",
"Q  c #A07C6C",
"!  c #B38663",
"~  c #B08565",
"^  c #B28565",
"/  c #B28665",
"(  c #B38865",
")  c #BF8D68",
"_  c #BF8F68",
"`  c #BF9069",
"'  c #C08F66",
"]  c #C08F67",
"[  c #C18F69",
"{  c #C19168",
"}  c #C09069",
"|  c #C09169",
" . c #C1926A",
".. c #C49369",
"X. c #C69368",
"o. c #C69369",
"O. c #C6916A",
"+. c #C5936A",
"@. c #C4926B",
"#. c #C7936A",
"$. c #C3946A",
"%. c #C3956A",
"&. c #C59468",
"*. c #C49469",
"=. c #C69569",
"-. c #C4946A",
";. c #C5946A",
":. c #C4956A",
">. c #C5956A",
",. c #C5946B",
"<. c #C6946B",
"1. c #C6956B",
"2. c #C3906C",
"3. c #C4936D",
"4. c #C3946C",
"5. c #C5956C",
"6. c #C6946C",
"7. c #C7946C",
"8. c #C7966D",
"9. c #C6966E",
"0. c #C8966D",
"q. c #CB986C",
"w. c #CD9E73",
"e. c #AD8C91",
"r. c #AA899A",
"t. c #AD8F9F",
"y. c #AE8FA1",
"u. c #AD90A2",
"i. c #B293A5",
"p. c #B092A6",
"a. c #DF858D",
"s. c #E0878F",
"d. c #E2C39D",
"f. c #E3C39D",
"g. c #E3C39E",
"h. c #E3C39F",
"j. c #E3C49D",
"k. c #E2C49E",
"l. c #E3C49E",
"z. c #E3C59E",
"x. c #E3C49F",
"c. c #E3C59F",
"v. c #E4C49E",
"b. c #E4C49F",
"n. c #E4C59F",
"m. c #DBC3A4",
"M. c #DFC4A4",
"N. c #DFC5A4",
"B. c #DFC7A4",
"V. c #DDC4A6",
"C. c #E2C3A0",
"Z. c #E1C5A0",
"A. c #E2C4A0",
"S. c #E3C4A0",
"D. c #E3C5A0",
"F. c #E3C5A1",
"G. c #E3C6A0",
"H. c #E3C6A1",
"J. c #E1C5A3",
"K. c #E1C6A3",
"L. c #E3C7A3",
"P. c #E4C4A0",
"I. c #E4C5A0",
"U. c #E5C5A0",
"Y. c #E4C5A1",
"T. c #E4C6A0",
"R. c #E4C6A1",
"E. c #E1C5A4",
"W. c #E3C6A4",
"Q. c #E2C6A9",
"!. c #F999C8",
"~. c #F89DC9",
"^. c #E1B2CB",
"/. c #E2B2CB",
"(. c #E3B4CB",
"). c #E2B5CD",
"_. c #E4B7CC",
"`. c #E4B7CD",
"'. c None",
/* pixels */
"'.'.'.'.'.'.'.'.'.'.'.'.'.'.'.'.'.'.'.'.'.'.'.'.'.'.'.'.'.'.'.'.",
"'.'.'.'.'.'.'.'.'.'.'.'.'.'.'.'.'.'.'.'.'.'.'.'.'.'.'.'.'.'.'.'.",
"'.'.'.'.'.'.'.'.'.'.'.'.'.'.'.'.'.'.'.'.'.'.'.'.'.'.'.'.'.'.'.'.",
"'.'.'.'.'.'.'.'.'.'.'.'.'.'.'.'.'.'.'.'.'.'.'.'.'.'.'.'.'.'.'.'.",
"'.'.'.'.'.'.'.'.'.'.'.'.'.'.'.'.'.'.'.'.'.'.'.'.'.'.'.'.'.'.'.'.",
"'.'.'.'.'.'.'.'.'.'.'.'.'.'.'.'.'.'.'.'.'.'.'.'.'.'.'.'.'.'.'.'.",
"'.'.'.'.'.'.'.'.'.'.'.'.'.'.'.'.'.'.'.'.'.'.'.'.'.'.'.'.'.'.'.'.",
"'.'.'.'.'.'.'.'.'.'.'.'.'.'.'.'., u '.'.'.'.'.'.'.9 > '.'.'.'.'.",
"'.'.'.'.'.h 4 , '.'.'.'.'.'.'.j p.i.p '.'.'.'.'.k u.y.q '.'.'.'.",
"'.'.'.'.> B.N.M.; '.'.'.'.'.'.l ).s.R O * - = , y t./.q '.'.'.'.",
"'.'.'.'., L K E.x '.'.'.'.'.'.m `.a.w.2.l.l.d.3.F.) (.8 '.'.'.'.",
"'.'.'.'., F g K.x '.'.'.'.'.'.z _.0.U.l.l.l.l.l.x.q.^.q '.'.'.'.",
"'.'.'.'.7 m.4 J.v '.'.'.'.'.3 H 6.I.b.b.l.v.v.l.l.S.X.e.e '.'.'.",
"'.'.'.'.c V.> @.b '.'.'.'.'.2 B R.I.x.b.b.v.v.x.x.l.x.C.s '.'.'.",
"'.'.'.'.'.d Q.t '.'.'.'.'.'.2 N G.I.; P.c.n.n.c.c.* h.x.f '.'.'.",
"'.'.'.'.'.j Q T n '.'.'.'.'.2 V R.I.; I.T.~.!.I.I.; S.x.p '.'.'.",
"'.'.'.'.'.u G A h < = = ; 4 5 M 4.Y.D.I.c.+.o.n.D.S.x.O.r '.'.'.",
"'.'.'.'.'.'.a C 6 U ( / ^ ~ P c W <.A.c.c.c.c.S.x.7.1.r.w '.'.'.",
"'.'.'.'.'.'.'.: D 5.! =.&.*.%.E i y % x.c.x.x.z.% * 0 : '.'.'.'.",
"'.'.'.'.'.'.'.1 D Z.:.>.;.-.:.:.] _ [ # = * = & { ' 0 '.'.'.'.'.",
"'.'.'.'.'.'.'.1 S F.;.-.-.-.*.c.l.l.z. .| } ` _ l.f.0 '.'.'.'.'.",
"'.'.'.'.'.'.'.2 Z ,.W.;.-.$...v.v.v.v.l.j.l.j.j.v.g.0 '.'.'.'.'.",
"'.'.'.'.'.'.'.'.u J 1.L.H.D.c.n.v.b.b.v.l.v.v.v.l.f.0 '.'.'.'.'.",
"'.'.'.'.'.'.'.'.'.= I #.D.x.c.c.c.c.c.x.l.x.x.l.8.0.@ '.'.'.'.'.",
"'.'.'.'.'.'.'.'.'.'.# Y Y # . . X   2.c.% > k.9.+ + '.'.'.'.'.'.",
"'.'.'.'.'.'.'.'.'.'.'.* * '.'.'.'.'.o $ '.'.> > '.'.'.'.'.'.'.'.",
"'.'.'.'.'.'.'.'.'.'.'.'.'.'.'.'.'.'.'.'.'.'.'.'.'.'.'.'.'.'.'.'.",
"'.'.'.'.'.'.'.'.'.'.'.'.'.'.'.'.'.'.'.'.'.'.'.'.'.'.'.'.'.'.'.'.",
"'.'.'.'.'.'.'.'.'.'.'.'.'.'.'.'.'.'.'.'.'.'.'.'.'.'.'.'.'.'.'.'.",
"'.'.'.'.'.'.'.'.'.'.'.'.'.'.'.'.'.'.'.'.'.'.'.'.'.'.'.'.'.'.'.'.",
"'.'.'.'.'.'.'.'.'.'.'.'.'.'.'.'.'.'.'.'.'.'.'.'.'.'.'.'.'.'.'.'.",
"'.'.'.'.'.'.'.'.'.'.'.'.'.'.'.'.'.'.'.'.'.'.'.'.'.'.'.'.'.'.'.'."
};
