/* XPM */
static char *result[] = {
/* columns rows colors chars-per-pixel */
"32 32 115 2 ",
"   c #271F37",
".  c #291E38",
"X  c #281F38",
"o  c #282037",
"O  c #2A2037",
"+  c #282138",
"@  c #292039",
"#  c #292139",
"$  c #2B2138",
"%  c #2A2039",
"&  c #2B2039",
"*  c #2A2139",
"=  c #292238",
"-  c #292239",
";  c #2A2238",
":  c #2A2338",
">  c #2A2239",
",  c #2B2239",
"<  c #2A2339",
"1  c #2B2339",
"2  c #29203A",
"3  c #29213A",
"4  c #2A213A",
"5  c #2B203B",
"6  c #2A223A",
"7  c #2B223A",
"8  c #2A233A",
"9  c #2B233A",
"0  c #2B233B",
"q  c #2C2239",
"w  c #2C213A",
"e  c #2D233A",
"r  c #2E233A",
"t  c #2B253B",
"y  c #2F2439",
"u  c #2F2539",
"i  c #2F2639",
"p  c #2C243A",
"a  c #2C243B",
"s  c #2D243B",
"d  c #2E253A",
"f  c #2F253A",
"g  c #2E253B",
"h  c #2F253B",
"j  c #2F263A",
"k  c #2B213C",
"l  c #2A223C",
"z  c #2D223C",
"x  c #2D233D",
"c  c #2B253C",
"v  c #2E253C",
"b  c #2D243F",
"n  c #2F263F",
"m  c #2D283D",
"M  c #302539",
"N  c #2C2340",
"B  c #FD5293",
"V  c #FD5399",
"C  c #FD5498",
"Z  c #FE569C",
"A  c #FBDDB8",
"S  c #FBDDB9",
"D  c #FBDDBA",
"F  c #FADDBB",
"G  c #FCDDB9",
"H  c #FCDDBA",
"J  c #FCDEBA",
"K  c #CFE2E5",
"L  c #DAE0E6",
"P  c #DDE3EA",
"I  c #DAE6E9",
"U  c #E1E9EC",
"Y  c #E2E9ED",
"T  c #E3EAEC",
"R  c #E2EAED",
"E  c #E3EAED",
"W  c #E3EBEF",
"Q  c #E4E9EC",
"!  c #E4EAEC",
"~  c #E5EBED",
"^  c #E4EAEE",
"/  c #E5EAEE",
"(  c #E4EBEE",
")  c #E5EBEE",
"_  c #E5EBEF",
"`  c #E6EBEE",
"'  c #E6EBEF",
"]  c #E7EBEF",
"[  c #E7ECEE",
"{  c #E6ECEF",
"}  c #E7ECEF",
"|  c #E9ECEE",
" . c #ECECEC",
".. c #E6EBF0",
"X. c #E6ECF0",
"o. c #E7ECF0",
"O. c #E7EDF0",
"+. c #E8EDF1",
"@. c #F2F1F0",
"#. c #FAF9F6",
"$. c #FBFAF7",
"%. c #FDFBF6",
"&. c #FDFBF7",
"*. c #FEFBF6",
"=. c #FEFBF7",
"-. c #FEFCF5",
";. c #FDFCF7",
":. c #FEFCF6",
">. c #FEFCF7",
",. c #FDFBF8",
"<. c #FEFBF8",
"1. c #FEFBF9",
"2. c #FDFCF8",
"3. c #FEFCF8",
"4. c None",
/* pixels */
"4.4.4.4.4.4.4.4.4.4.4.4.4.4.4.4.4.4.4.4.4.4.4.4.4.4.4.4.4.4.4.4.",
"4.4.4.4.4.4.4.4.4.4.4.4.4.4.4.4.4.4.4.4.4.4.4.4.4.4.4.4.4.4.4.4.",
"4.4.4.4.4.4.4.4.4.4.4.4.4.4.4.4.4.4.4.4.4.4.4.4.4.4.4.4.4.4.4.4.",
"4.4.4.4.4.4.4.4.4.4.4.4.4.4.4.4.4.4.4.4.4.4.4.4.4.4.4.4.4.4.4.4.",
"4.4.4.4.4.4.4.4.4.4.4.4.4.4.4.4.4.4.4.4.4.4.4.4.4.4.4.4.4.4.4.4.",
"4.4.4.4.4.4.4.4.4.4.4.4.4.4.4.4.4.4.4.4.4.4.4.4.4.4.4.4.4.4.4.4.",
"4.4.4.4.4.4.4.4.4.4.4.4.4.4.4.4.4.4.4.4.4.4.4.4.4.4.4.4.4.4.4.4.",
"4.4.4.4.4.4.4.4.4.4.4.& 1 ; 4.4.4.4.4.4.4.* 2 * 4.4.4.4.4.4.4.4.",
"4.4.4.4.4.4.4.4.4.4.9 &.*.>.3 4.4.4.4.4.* =.*.=.  4.4.4.4.4.4.4.",
"4.4.4.4.4.4.4.4.4.4.p *.o.) _ w , 1 e q ..' ] ;.X 4.4.4.4.4.4.4.",
"4.4.4.4.4.4.4.4.4.4.a &.o.L >.>.>.>.>.>.=.P X.;.  4.4.4.4.4.4.4.",
"4.4.4.4.4.4.4.4.4.4.0 &.o.>.>.>.>.>.>.>.>.>.:.-.o 4.4.4.4.4.4.4.",
"4.4.4.4.4.4.4.4.4.4.k o.>.>.>.>.>.>.>.>.>.>.*.` % 4.4.4.4.4.4.4.",
"4.4.4.4.4.4.4.4.4.; / >.>.>.>.* >.>.>.* >.>.>.=.Y o 4.4.4.4.4.4.",
"4.4.4.4.4.4.4.4.4.- ) >.>.>.>.* >.>.>.* >.>.>.*.E + 4.4.4.4.4.4.",
"4.4.4.4.4.4.4.* 4 = ^ >.:.C >.* >.>.>.* >.B =.*.! + O 4.4.4.4.4.",
"4.4.4.4.4.4.m <.%.$ _ o.+.>.>.Z >.* >.V 3.>.=.~ E @ 4.4.4.4.4.4.",
"4.4.4.4.4.t 1.+.%.O W :.>.3.3.3.>.>.3.3.>.>.=.*.U . 4.4.4.4.4.4.",
"4.4.4.4.4.t I |  .@.5 _ >.>.>.>.=.>.>.>.>.=.*.^ 7 4.4.4.4.4.4.4.",
"4.4.4.4.4.t o.2.b b b < A J G A G H J S S D F z 4 4.4.4.4.4.4.4.",
"4.4.4.4.4.c } O.b ,._ 3.>.:.:.:.:.:.*.*.*.:.*.>.# 4.4.4.4.4.4.4.",
"4.4.4.4.4.8 ( ,.N o.>.>.>.>.>.>.>.>.>.>.>.>.>.:.: 4.4.4.4.4.4.4.",
"4.4.4.4.4.4.l $.K o.>.>.>.>.>.>.>.>.>.>.>.>.>.*.R > 4.4.4.4.4.4.",
"4.4.4.4.4.4.# #.K o.>.>.>.>.>.>.:.>.>.>.>.>.>.:.E - 4.4.4.4.4.4.",
"4.4.4.4.4.4.4.x n { *.:.>.:.>.>.>.>.>.>.:.*.=.*.T 6 4.4.4.4.4.4.",
"4.4.4.4.4.4.4.4.4.a ( ;.{ [ >.>.>.>.>.>.*.{ [ Q s 4.4.4.4.4.4.4.",
"4.4.4.4.4.4.4.4.4.4.r u f f h y u M i i j d g v 4.4.4.4.4.4.4.4.",
"4.4.4.4.4.4.4.4.4.4.4.4.4.4.4.4.4.4.4.4.4.4.4.4.4.4.4.4.4.4.4.4.",
"4.4.4.4.4.4.4.4.4.4.4.4.4.4.4.4.4.4.4.4.4.4.4.4.4.4.4.4.4.4.4.4.",
"4.4.4.4.4.4.4.4.4.4.4.4.4.4.4.4.4.4.4.4.4.4.4.4.4.4.4.4.4.4.4.4.",
"4.4.4.4.4.4.4.4.4.4.4.4.4.4.4.4.4.4.4.4.4.4.4.4.4.4.4.4.4.4.4.4.",
"4.4.4.4.4.4.4.4.4.4.4.4.4.4.4.4.4.4.4.4.4.4.4.4.4.4.4.4.4.4.4.4."
};
