/* XPM */
static char *result[] = {
/* columns rows colors chars-per-pixel */
"32 32 12 1 ",
"  c #1C1117",
". c #35271F",
"X c #301D27",
"o c #563F2A",
"O c #422835",
"+ c #664729",
"@ c #7A5937",
"# c #523A42",
"$ c #8D6845",
"% c #487085",
"& c #5A8CA6",
"* c None",
/* pixels */
"*********              *********",
"******   ## ### ### ###   ******",
"****  ###OO OOX OOX OOX ##  ****",
"*** ## XO              #OO## ***",
"** OOO   oooooooooooooo   OOX **",
"*  XX ooo@o@@@o@@@o@+@o+oo     *",
"* #  oo+@@o@@@o@@@o@+$o@@@o ## *",
" OO# @o+$@o@@@o@@$o@+$o+@@o  OO ",
" OO o@o+$@o@@@o@@@o@+$o+$@oo XX ",
"XXX @@o+$@o@$@o@+$o+$@o+$@o@    ",
"   o@@o+$@o@@@o@+$o+$@o+$@o@o ##",
"## @@@o@$@o@$@o@+$o+$@o@+$o@@ OO",
"O   @@o@@@o+$@o@+$o@@@o@+$o@@ OO",
"X %     $@o+$@o@@$o@$@o@+@o@$ XX",
"  %&%&% @@o+$@o@@@o@@@o@@@o@@   ",
"# %     @@o+$@o@@$o@@@o@+@o@$ ##",
"O   ....@@o+$@o@@@o@$@o@@@o+$ OO",
"XX .@@o@@@o@$@o+@@o+$@o@@@o+$ XX",
"   @@@o@@@o@@@o@@@o+$@o   o+$   ",
"## @@@o@$@o@@@o+@@o+$   %   $ ##",
"OO @+@o@@@o@@@o+$@o+$ &&&&& $ OO",
"XX @+$o@$@o@@@o+$@o+$ &   & $ XX",
"   @+$o+$@o@+@o+$@o+@ %   % $   ",
"## @+$o+$@o@@@o+$@o@@. &&& .@ ##",
"O   @$o+$@o@+@o+$@o+@+.   .$@ OO",
"O %     $@o@+$o@$@o@@+o...o$@ XX",
"X %&%&% $@o@+$o@@@o@@+o@+$o$@   ",
"  %     @@o@+$o@$@o@@+o@+$o$@ ##",
"#   ....$@o@+$o@@@o@@+o@@$o@@ OO",
"OO .+@o@$@.@++o@@@o@@@o@@+o@+ OO",
"XX +++.@++.+++.@++.@++.@++.++ XX",
"                                "
};
