/* XPM */
static char *result[] = {
/* columns rows colors chars-per-pixel */
"16 20 7 1 ",
"  c #1C1117",
". c #1F5175",
"X c #355261",
"o c #2E79B2",
"O c #5A8CA6",
"+ c #89ACBE",
"@ c None",
/* pixels */
"@@      @@@@@@@@",
"@ ..oooo @@@@@@@",
" .  ..ooo @@@@@@",
"  @@ ..oo @@@@@@",
"@@@@@ .. @@@@@@@",
"@@@          @@@",
"@@@ OOOOOO++ @@@",
"@@@ OOXXXXXX   @",
"@@@ OOXOOOOO++ @",
"@@@ OOXO O O + @",
"@@@ OOXO O O + @",
"@@@ OOXO O O + @",
"@@@ OOXOOOOO++ @",
"@@@ OOXXXXXX   @",
"@@@ OOOOOOO+ @@@",
"@@@ XXXXXXXO @@@",
"@@@ OOOOOOO+ @@@",
"@@@ OOOOOOO+ @@@",
"@@@ X      X @@@",
"@@@   @@@@   @@@"
};
