/* XPM */
static char *result[] = {
/* columns rows colors chars-per-pixel */
"16 32 4 1 ",
"  c #1C1117",
". c #CCAA44",
"X c #D9C589",
"o c None",
/* pixels */
"oooooooooooooooo",
"oooooooooooooooo",
"oooooooooooooooo",
"oooooooooooooooo",
"oooooooooooooooo",
"oooooooooooooooo",
"oooooooooooooooo",
"oooooooooooooooo",
"oooooooooooooooo",
"oooooooooooooooo",
"ooooooo  ooooooo",
"oooooo X. oooooo",
"ooooo XX.. ooooo",
"ooooo XX.. ooooo",
"ooooo XX.. ooooo",
"ooooo XX.. ooooo",
"ooooo XX.. ooooo",
"ooooo XX.. ooooo",
"ooooo XX.. ooooo",
"ooooo XX.. ooooo",
"ooooo XX.. ooooo",
"ooooo XX.. ooooo",
"ooo   XX..   ooo",
"ooo .      . ooo",
"ooo .. XX .. ooo",
"oooo   XX   oooo",
"oooooo    oooooo",
"oooooo .X oooooo",
"oooooo X. oooooo",
"oooooo .X oooooo",
"ooooooo  ooooooo",
"oooooooooooooooo"
};
