/* XPM */
static char *result[] = {
/* columns rows colors chars-per-pixel */
"32 32 9 1 ",
"  c black",
". c #272736",
"X c #323E4F",
"o c #3D6E70",
"O c #964253",
"+ c #BA6156",
"@ c #3CA370",
"# c #8FDE5D",
"$ c None",
/* pixels */
"$$$$$$$$$$$$    $$$$$$$$$$$$$$$$",
"$$$$$$$$$$$ @@@@  $$$$$$$$$$$$$$",
"$$$$$$$$$  @@@@@@@       $$$$$$$",
"$$$$$$$  @@@@#@@@@@@###@@ $$$$$$",
"$$$$$$ @@@@####@@@@@@##@@@ $$$$$",
"$$$$$ ##@@@###@@@@@@@@@@@@ $$$$$",
"$$$$ ###@@@#@@@@@@###@@@##@ $$$$",
"$$$ ####@@@@@@@@@####@@@##@ $$$$",
"$$$ #@@@@@@@@@@@@@@##@@@##@ $$$$",
"$$$ @@@@@##@@@@@@@@##@@@@#@@ $$$",
"$$$$ @@@@###@@@@@@@@@@@@@@@@ $$$",
"$$$$$ @@@###@o@@@@@@@@@@@@oo $$$",
"$$$$$ o@@@#@ooo@@@@@@@oo@ooo $$$",
"$$$$$ oooo@@ooooo@o@@oooooo $$$$",
"$$$$ ooooooooo@oooooooo@o  $$$$$",
"$$$$ ooo@@ooo@@oooooooo@@ $$$$$$",
"$$$$ ooo@@@oo@@oo@@ooo@@@o $$$$$",
"$$$$ ooo@@@oo@@oo@@oooo@@o $$$$$",
"$$$ oooooooooooooo@oooooooo $$$$",
"$$ XXXooooooooooooooooooooo $$$$",
"$$ XooXooXXXXXoooooXooooooX $$$$",
"$$ XoXXXXXXXXXXooXXXXoXXXXX $$$$",
"$$ .XXXooXXXXXXXoXXXXXXXXXX $$$$",
"$$ ..XXXoXX.XXXXXXXXXXXX.X. $$$$",
"$$$ ...XXX..XX..XXXX..XX.. $$$$$",
"$$$$  ..X..XX...X.....X... $$$$$",
"$$$$$$ .................. $$$$$$",
"$$$$$$$                  $$$$$$$",
"$$$$$$$$$$$$ O+OOO $$$$$$$$$$$$$",
"$$$$$$$$$$$$ O++OO $$$$$$$$$$$$$",
"$$$$$$$$$$$$ O+++O $$$$$$$$$$$$$",
"$$$$$$$$$$$$$     $$$$$$$$$$$$$$"
};
